<?xml version="1.0" encoding="UTF-8"?>
<svg width="1487px" height="440px" viewBox="0 0 1487 440" version="1.1" xmlns="http://www.w3.org/2000/svg" xmlns:xlink="http://www.w3.org/1999/xlink">
    <!-- Generator: Sketch 48.2 (47327) - http://www.bohemiancoding.com/sketch -->
    <title>Playstore</title>
    <desc>Created with Sketch.</desc>
    <defs>
        <rect id="path-1" x="0" y="0" width="1487" height="439.196078" rx="50"></rect>
        <linearGradient x1="50%" y1="0%" x2="50%" y2="38.9125982%" id="linearGradient-2">
            <stop stop-color="#FBDA09" offset="0%"></stop>
            <stop stop-color="#FFBC00" offset="100%"></stop>
        </linearGradient>
        <path d="M111.334225,25.7052027 C119.936931,10.580089 133.882905,10.5766263 142.48783,25.7052027 L264.619949,240.429348 C273.222904,255.554462 266.10145,267.815789 248.70453,267.815789 L5.12152392,267.815789 C-12.2712746,267.815789 -19.3990224,255.557924 -10.7943476,240.429348 L111.334225,25.7052027 Z" id="path-3"></path>
        <linearGradient x1="0%" y1="58.4755255%" x2="69.3064856%" y2="39.0830098%" id="linearGradient-5">
            <stop stop-color="#01E2FF" offset="0%"></stop>
            <stop stop-color="#01C4FF" offset="100%"></stop>
        </linearGradient>
        <linearGradient x1="20.2810876%" y1="20.1019903%" x2="83.820166%" y2="83.6214476%" id="linearGradient-6">
            <stop stop-color="#28D781" offset="0%"></stop>
            <stop stop-color="#02F076" offset="100%"></stop>
        </linearGradient>
        <linearGradient x1="74.4881466%" y1="17.4301299%" x2="10.1079427%" y2="91.1838038%" id="linearGradient-7">
            <stop stop-color="#F2414E" offset="0%"></stop>
            <stop stop-color="#E02554" offset="100%"></stop>
        </linearGradient>
    </defs>
    <g id="App-Store-Badges" stroke="none" stroke-width="1" fill="none" fill-rule="evenodd" transform="translate(-457.000000, -375.000000)">
        <g id="Playstore" transform="translate(457.000000, 375.000000)">
            <g id="background">
                <use fill="#000000" fill-rule="evenodd" xlink:href="#path-1"></use>
                <rect stroke="#A6A6A6" stroke-width="10" x="5" y="5" width="1477" height="429.196078" rx="50"></rect>
                <rect stroke="#8F8F8F" stroke-width="5" x="2.5" y="2.5" width="1482" height="434.196078" rx="50"></rect>
            </g>
            <g id="get-it-on" transform="translate(456.000000, 74.000000)" fill="#FFFFFF">
                <path d="M332,72 C312.117749,72 296,55.882251 296,36 C296,16.117749 312.117749,0 332,0 C351.882251,0 368,16.117749 368,36 C368,55.882251 351.882251,72 332,72 Z M332,61 C345.807119,61 357,49.8071187 357,36 C357,22.1928813 345.807119,11 332,11 C318.192881,11 307,22.1928813 307,36 C307,49.8071187 318.192881,61 332,61 Z" id="o"></path>
                <path d="M88,40 L88,62 L117,62 L117,70 L88,70 L77,70 L77,4 L77,3 L117,3 L117,11 L88,11 L88,32 L114,32 L114,40 L88,40 Z" id="e"></path>
                <path d="M156,11 L156,70 L145,70 L145,11 L128,11 L128,3 L173,3 L173,11 L156,11 Z" id="t"></path>
                <path d="M254,11 L254,70 L243,70 L243,11 L226,11 L226,3 L271,3 L271,11 L254,11 Z" id="t"></path>
                <rect id="i" x="205" y="3" width="11" height="67"></rect>
                <path d="M388,3 L390,3 L420,52.0243902 L420,3 L431,3 L431,70 L420,70 L388,17.7073171 L388,70 L377,70 L377,3 L388,3 Z" id="n"></path>
                <g id="g" transform="translate(0.000000, 1.000000)">
                    <polygon id="Rectangle-1" points="35.7832618 32.1701113 65.9008405 32.1701113 65.6026466 41.7019961 35.7832618 41.7019961"></polygon>
                    <path d="M59.974183,9.74252872 L53.0824377,16.6268218 C48.7838492,12.2365484 42.6785717,9.82975623 35.6341649,9.82975623 C21.5533482,9.82975623 10.1385908,21.2321704 10.1385908,35.297761 C10.1385908,49.3633516 21.5533482,60.7657658 35.6341649,60.7657658 C49.7149816,60.7657658 59.7121533,52.6342256 59.6911866,35.297761 C59.7150016,34.2263788 59.6900253,33.183481 59.6183969,32.1701113 L68.4159355,32.1701113 C68.4169336,32.2879734 68.4174335,32.4060753 68.4174335,32.5244154 C71.7266863,56.7974438 55.1775101,70.7741285 35.335971,70.595522 C15.8204719,70.5675695 0,54.7921761 0,35.297761 C0,15.8033459 15.8204531,0 35.335971,0 C45.5368267,0 54.1121378,3.5600612 59.974183,9.74252872 Z" id="Oval-1"></path>
                </g>
            </g>
            <g id="googleplay" transform="translate(451.000000, 192.000000)" fill="#FFFFFF">
                <g id="big-P" transform="translate(624.000000, 5.000000)">
                    <path d="M5,3.51464178e-06 L61.6928936,0 C61.6928936,0 94.3294296,5.55273437 94.3294271,43.0297987 C94.3294245,80.5068629 61.6928936,86.0595973 61.6928936,86.0595973 L5,86.0596008 L5,3.51464178e-06 Z M16,20.8169128 L16,67 L54.485906,67 C54.485906,67 72,67 72,43.9084564 C72,20.8169128 54.485906,20.8169128 54.485906,20.8169128 L16,20.8169128 Z" id="Combined-Shape"></path>
                    <rect id="Rectangle-6" x="0" y="0" width="20" height="140"></rect>
                </g>
                <rect id="y" x="730" y="5" width="20" height="140"></rect>
                <path d="M824.128019,134.990133 C818.619314,139.53522 809.812276,143.812901 795.902433,144.681641 C764.035735,146.671877 764.019132,117.592772 764.019132,115.631836 C764.019132,113.6709 762.447355,89.956543 787.796476,86.1870117 C805.746148,83.5178127 818.317975,87.9652114 824.128019,90.7890503 L824.128019,86.6756044 C822.703237,81.2277765 818.281785,71.2177734 805.026456,71.2177734 C786.815607,71.2177734 782.794035,81.0634766 782.794035,81.0634766 L766.134855,71.2177734 C766.134855,71.2177734 775.457031,52 803.4288,52 C838.208982,52 844.130094,75.9893799 844.130094,84.0689697 C844.130094,84.1082973 844.1294,84.1473706 844.128019,84.1861912 L844.128019,144.955078 L824.128019,144.955078 L824.128019,134.990133 Z M822.699308,105.00293 C822.699308,105.00293 784.169035,94.6176765 782.829679,116.263184 C781.490324,137.908691 819.794035,127.515137 823.216398,112.170898 C823.216397,107.291504 822.699308,105.00293 822.699308,105.00293 Z" id="a"></path>
                <path d="M881.656657,139.68842 L846,55 L866,55 L891.656657,115.937338 L917.109375,55.484375 L937.109375,55.484375 L883,184 L863,184 L881.656657,139.68842 Z" id="y"></path>
                <path d="M579.225347,87.7256561 L515.971382,113.867149 C515.971382,113.867149 520.056556,128.325968 539.074315,128.422877 C553.965929,128.49876 562.37233,115.223582 562.37233,115.223582 L578.42071,126.09202 C578.42071,126.09202 565.470547,147.036382 538.947907,147.036382 C506.355239,147.036382 492,118.536746 492,100.028142 C492,82.1955793 503.394368,52 536.925375,52 C570.456382,52 579.225347,87.7256561 579.225347,87.7256561 Z M555.158551,80.3201529 C555.158551,80.3201529 547.200324,68.211908 534.995218,70.4449359 C509.177547,75.1684986 512.426481,97.7615592 512.426481,97.7615592 L555.158551,80.3201529 Z" id="e"></path>
                <rect id="i" x="462" y="5" width="21.1587983" height="139.705882"></rect>
                <path d="M428.139896,55.0362628 L447.699143,55.2052336 L447.699143,143.355363 C447.699143,165.877479 434.290144,189.651733 402.722111,189.651733 C371.154079,189.651733 360.958766,161.682058 360.958766,161.682058 L378.92211,154.12739 C378.92211,154.12739 384.400814,171.365081 403.655588,171.365058 C425.582559,171.365032 428.142327,151.416343 428.142327,144.58785 L428.142327,135.021519 C428.142327,135.021519 420.5554,146.895886 401.710845,146.895912 C381.279502,146.895941 357,129.390838 357,99.5481092 C357,69.7053804 379.862271,52.6356743 401.947253,52.0147593 C419.63712,51.5174121 428.139896,63.7547098 428.139896,63.7547098 L428.139896,55.0362628 Z M403.380893,128.982756 C417.644298,128.982756 429.207073,115.917079 429.207073,99.7997496 C429.207073,83.6824201 417.644298,70.6167431 403.380893,70.6167431 C389.117487,70.6167431 377.554713,83.6824201 377.554713,99.7997496 C377.554713,115.917079 389.117487,128.982756 403.380893,128.982756 Z" id="g"></path>
                <path d="M300.607296,147 C274.314513,147 253,125.733526 253,99.5 C253,73.2664744 274.314513,52 300.607296,52 C326.90008,52 348.214592,73.2664744 348.214592,99.5 C348.214592,125.733526 326.90008,147 300.607296,147 Z M300.296137,128.372549 C315.075088,128.372549 327.055794,115.445869 327.055794,99.5 C327.055794,83.5541315 315.075088,70.627451 300.296137,70.627451 C285.517187,70.627451 273.536481,83.5541315 273.536481,99.5 C273.536481,115.445869 285.517187,128.372549 300.296137,128.372549 Z" id="o"></path>
                <path d="M197.607296,147 C171.314513,147 150,125.733526 150,99.5 C150,73.2664744 171.314513,52 197.607296,52 C223.90008,52 245.214592,73.2664744 245.214592,99.5 C245.214592,125.733526 223.90008,147 197.607296,147 Z M197.296137,128.372549 C212.075088,128.372549 224.055794,115.445869 224.055794,99.5 C224.055794,83.5541315 212.075088,70.627451 197.296137,70.627451 C182.517187,70.627451 170.536481,83.5541315 170.536481,99.5 C170.536481,115.445869 182.517187,128.372549 197.296137,128.372549 Z" id="o"></path>
                <g id="big-g">
                    <polygon id="Rectangle-1" points="74.6781116 67.0588235 137.532189 67.0588235 136.909871 86.9281046 74.6781116 86.9281046"></polygon>
                    <path d="M125.163512,20.3083697 L110.780739,34.6587272 C101.809772,25.5071713 89.0683235,20.4901961 74.3669528,20.4901961 C44.9809005,20.4901961 21.1587983,44.2586086 21.1587983,73.5784314 C21.1587983,102.898254 44.9809005,126.666667 74.3669528,126.666667 C103.753005,126.666667 124.616668,109.716414 124.572911,73.5784314 C124.622612,71.3451277 124.570488,69.1711998 124.421002,67.0588235 L142.781083,67.0588235 C142.783166,67.304508 142.784209,67.5506922 142.784209,67.7973729 C149.690476,118.394672 115.153065,147.529169 73.7446352,147.156863 C33.016637,147.098596 0,114.214677 0,73.5784314 C0,32.9421858 33.0165978,0 73.7446352,0 C95.0333774,0 112.929679,7.42097264 125.163512,20.3083697 Z" id="Oval-1"></path>
                </g>
            </g>
            <g id="logo_play" transform="translate(109.000000, 78.000000)">
                <mask id="mask-4" fill="white">
                    <use xlink:href="#path-3"></use>
                </mask>
                <use id="yellow" fill="url(#linearGradient-2)" transform="translate(126.908921, 141.105163) rotate(-270.000000) translate(-126.908921, -141.105163) " xlink:href="#path-3"></use>
                <polygon id="blue" fill="url(#linearGradient-5)" mask="url(#mask-4)" points="6.66133815e-16 -0.0986111153 139.786844 138.83674 -1.80555556 283.263498"></polygon>
                <polygon id="green" fill="url(#linearGradient-6)" mask="url(#mask-4)" points="-28.7453704 -28.7004557 139.770255 138.877379 189.871914 91.0812284"></polygon>
                <polygon id="red" fill="url(#linearGradient-7)" mask="url(#mask-4)" points="139.79321 138.845407 216.493827 216.156037 -12.6419753 293.466667"></polygon>
            </g>
        </g>
    </g>
</svg>